<svg width="36" height="40" viewBox="0 0 36 40" fill="none" xmlns="http://www.w3.org/2000/svg">
<path d="M17.9592 40C15.4748 40 13.1401 39.5224 10.9551 38.5673C8.77007 37.6133 6.86939 36.3182 5.25306 34.6818C3.63673 33.0455 2.35744 31.1212 1.41518 28.9091C0.471728 26.697 0 24.3333 0 21.8182C0 18.3636 0.890775 15.1739 2.67233 12.2491C4.45268 9.32545 6.86939 7.09091 9.92245 5.54545C9.95238 6.12121 10.0122 6.70424 10.102 7.29455C10.1918 7.88606 10.3415 8.57576 10.551 9.36364C8.39592 10.697 6.69698 12.4618 5.4542 14.6582C4.21263 16.8558 3.59184 19.2424 3.59184 21.8182C3.59184 25.8788 4.98367 29.3182 7.76735 32.1364C10.551 34.9545 13.9483 36.3636 17.9592 36.3636C21.9701 36.3636 25.3673 34.9545 28.151 32.1364C30.9347 29.3182 32.3265 25.8788 32.3265 21.8182C32.3265 19.2424 31.7051 16.8485 30.4624 14.6364C29.2208 12.4242 27.5075 10.6515 25.3224 9.31818C25.532 8.5303 25.6816 7.84061 25.7714 7.24909C25.8612 6.65879 25.9361 6.09091 25.9959 5.54545C29.049 7.09091 31.4663 9.31818 33.2478 12.2273C35.0282 15.1364 35.9184 18.3333 35.9184 21.8182C35.9184 24.3333 35.4466 26.697 34.5032 28.9091C33.5609 31.1212 32.2816 33.0455 30.6653 34.6818C29.049 36.3182 27.1483 37.6133 24.9633 38.5673C22.7782 39.5224 20.4435 40 17.9592 40ZM17.9592 32.7273C14.966 32.7273 12.4218 31.6667 10.3265 29.5455C8.23129 27.4242 7.18367 24.8485 7.18367 21.8182C7.18367 20.0606 7.5656 18.4091 8.32947 16.8636C9.09214 15.3182 10.1769 14.0303 11.5837 13C11.7333 13.4545 11.898 13.977 12.0776 14.5673C12.2571 15.1588 12.4966 15.8939 12.7959 16.7727C12.1374 17.4697 11.6364 18.2424 11.2927 19.0909C10.9479 19.9394 10.7755 20.8485 10.7755 21.8182C10.7755 23.8182 11.4789 25.5303 12.8857 26.9545C14.2925 28.3788 15.9837 29.0909 17.9592 29.0909C19.9347 29.0909 21.6258 28.3788 23.0326 26.9545C24.4395 25.5303 25.1429 23.8182 25.1429 21.8182C25.1429 20.8485 24.971 19.9394 24.6274 19.0909C24.2826 18.2424 23.781 17.4697 23.1224 16.7727C23.3619 16.0455 23.5792 15.3709 23.7744 14.7491C23.9683 14.1285 24.1401 13.5455 24.2898 13C25.6966 14.0303 26.7891 15.3182 27.5673 16.8636C28.3456 18.4091 28.7347 20.0606 28.7347 21.8182C28.7347 24.8485 27.6871 27.4242 25.5918 29.5455C23.4966 31.6667 20.9524 32.7273 17.9592 32.7273ZM16.1633 15.4545C15.0558 12.0606 14.3302 9.67394 13.9866 8.29455C13.6418 6.91636 13.4694 5.66667 13.4694 4.54545C13.4694 3.27273 13.9034 2.19697 14.7714 1.31818C15.6395 0.439394 16.702 0 17.9592 0C19.2163 0 20.2789 0.439394 21.1469 1.31818C22.015 2.19697 22.449 3.27273 22.449 4.54545C22.449 5.66667 22.2772 6.91636 21.9335 8.29455C21.5887 9.67394 20.8626 12.0606 19.7551 15.4545H16.1633ZM17.9592 25.4545C16.9714 25.4545 16.1261 25.0982 15.4233 24.3855C14.7193 23.6739 14.3673 22.8182 14.3673 21.8182C14.3673 20.8182 14.7193 19.9618 15.4233 19.2491C16.1261 18.5376 16.9714 18.1818 17.9592 18.1818C18.9469 18.1818 19.7928 18.5376 20.4968 19.2491C21.1996 19.9618 21.551 20.8182 21.551 21.8182C21.551 22.8182 21.1996 23.6739 20.4968 24.3855C19.7928 25.0982 18.9469 25.4545 17.9592 25.4545Z" fill="#1C1B1F"/>
</svg>
