<svg width="40" height="40" viewBox="0 0 40 40" fill="none" xmlns="http://www.w3.org/2000/svg">
<path d="M0 40C0 36.3 0.491333 33.1413 1.474 30.524C2.458 27.908 3.71667 25.7333 5.25 24C6.78333 22.2667 8.5 20.9247 10.4 19.974C12.3 19.0247 14.1667 18.3667 16 18V12C11.4333 11.4333 7.62467 10.0247 4.574 7.774C1.52467 5.52467 0 2.93333 0 0H40C40 2.93333 38.4747 5.52467 35.424 7.774C32.3747 10.0247 28.5667 11.4333 24 12V18C25.8333 18.3667 27.7 19.0247 29.6 19.974C31.5 20.9247 33.2167 22.2667 34.75 24C36.2833 25.7333 37.542 27.908 38.526 30.524C39.5087 33.1413 40 36.3 40 40H28V36H35.75C35.15 30.9333 33.2587 27.2667 30.076 25C26.892 22.7333 23.5333 21.6 20 21.6C16.4667 21.6 13.1087 22.7333 9.926 25C6.742 27.2667 4.85 30.9333 4.25 36H12V40H0ZM20 8.25C23.0333 8.25 25.7333 7.84133 28.1 7.024C30.4667 6.208 32.35 5.2 33.75 4H6.25C7.65 5.2 9.53333 6.208 11.9 7.024C14.2667 7.84133 16.9667 8.25 20 8.25ZM20 40C18.9 40 17.9587 39.6087 17.176 38.826C16.392 38.042 16 37.1 16 36C16 35.4333 16.1087 34.9167 16.326 34.45C16.542 33.9833 16.8333 33.5667 17.2 33.2C18 32.4 19.35 31.558 21.25 30.674C23.15 29.7913 25.4 28.9 28 28C27.0667 30.6 26.1667 32.85 25.3 34.75C24.4333 36.65 23.6 38 22.8 38.8C22.4333 39.1667 22.0167 39.458 21.55 39.674C21.0833 39.8913 20.5667 40 20 40Z" fill="black"/>
</svg>
