<svg width="20" height="40" viewBox="0 0 20 40" fill="none" xmlns="http://www.w3.org/2000/svg">
<path d="M0 0H19.4872V15.7C19.4872 16.4667 19.3248 17.15 19 17.75C18.6752 18.35 18.2205 18.8333 17.6359 19.2L10.7179 23.4L12.0821 28H19.4872L13.4462 32.4L15.7846 40L9.74359 35.3L3.70256 40L6.04103 32.4L0 28H7.40513L8.76923 23.4L1.85128 19.2C1.26667 18.8333 0.811966 18.35 0.487179 17.75C0.162393 17.15 0 16.4667 0 15.7V0ZM3.89744 4V15.7L7.79487 18.1V4H3.89744ZM15.5897 4H11.6923V18.1L15.5897 15.7V4Z" fill="#1C1B1F"/>
</svg>
