<svg width="45" height="45" viewBox="0 0 45 45" fill="none" xmlns="http://www.w3.org/2000/svg">
<path d="M1.23223 40.2322C0.255922 41.2085 0.255922 42.7915 1.23223 43.7678C2.20854 44.7441 3.79146 44.7441 4.76777 43.7678L1.23223 40.2322ZM44.5 3C44.5 1.61929 43.3807 0.5 42 0.499998L19.5 0.499999C18.1193 0.499999 17 1.61929 17 3C17 4.38071 18.1193 5.5 19.5 5.5H39.5V25.5C39.5 26.8807 40.6193 28 42 28C43.3807 28 44.5 26.8807 44.5 25.5L44.5 3ZM4.76777 43.7678L43.7678 4.76777L40.2322 1.23223L1.23223 40.2322L4.76777 43.7678Z" fill="#01579B"/>
</svg>
