<svg width="39" height="46" viewBox="0 0 39 46" fill="none" xmlns="http://www.w3.org/2000/svg">
<path d="M17.0625 46C15.7219 46 14.5746 45.5263 13.6208 44.5788C12.6653 43.6298 12.1875 42.4895 12.1875 41.1579V31.4737H4.875C3.53437 31.4737 2.38712 30.9992 1.43325 30.0501C0.47775 29.1027 0 27.9632 0 26.6316V9.68421C0 7.02105 0.954688 4.74123 2.86406 2.84474C4.77344 0.948246 7.06875 0 9.75 0H39V26.6316C39 27.9632 38.5231 29.1027 37.5692 30.0501C36.6137 30.9992 35.4656 31.4737 34.125 31.4737H26.8125V41.1579C26.8125 42.4895 26.3356 43.6298 25.3817 44.5788C24.4262 45.5263 23.2781 46 21.9375 46H17.0625ZM4.875 16.9474H34.125V4.84211H31.6875V14.5263H26.8125V4.84211H24.375V9.68421H19.5V4.84211H9.75C8.40938 4.84211 7.26212 5.31663 6.30825 6.26568C5.35275 7.21312 4.875 8.35263 4.875 9.68421V16.9474ZM4.875 26.6316H34.125V21.7895H4.875V26.6316Z" fill="#01579B"/>
</svg>
