<svg width="46" height="46" viewBox="0 0 46 46" fill="none" xmlns="http://www.w3.org/2000/svg">
<path d="M23.0288 45.8455L13.4541 36.2707L16.6644 33.0604L20.7759 37.1719V25.5695L9.22991 25.5132L13.3414 29.6247L10.0747 32.8914L0.5 23.3166L10.0184 13.7982L13.2288 17.0086L9.17359 21.0638H20.7759V9.46143L16.6644 13.5729L13.4541 10.3626L23.0288 0.787842L32.6035 10.3626L29.3932 13.5729L25.2817 9.46143V21.0638L36.8277 21.1201L32.7162 17.0086L35.9829 13.7419L45.5576 23.3166L35.9829 32.8914L32.7725 29.681L36.884 25.5695H25.2817L25.2254 37.1155L29.3369 33.004L32.6035 36.2707L23.0288 45.8455Z" fill="#A8A8A8"/>
</svg>
