<svg width="28" height="38" viewBox="0 0 28 38" fill="none" xmlns="http://www.w3.org/2000/svg">
<path d="M13.764 37.5604C12.7572 37.5604 11.8956 37.198 11.1793 36.4733C10.4617 35.7473 10.103 34.875 10.103 33.8564H17.425C17.425 34.875 17.0668 35.7473 16.3505 36.4733C15.6329 37.198 14.7707 37.5604 13.764 37.5604ZM6.44194 32.0044V28.3004H21.086V32.0044H6.44194ZM6.89956 26.4484C4.79448 25.1828 3.12444 23.4852 1.88946 21.3554C0.653258 19.2255 0.0351562 16.9105 0.0351562 14.4103C0.0351562 10.552 1.37021 7.27268 4.04031 4.57246C6.70919 1.871 9.95041 0.520264 13.764 0.520264C17.5775 0.520264 20.8188 1.871 23.4876 4.57246C26.1577 7.27268 27.4928 10.552 27.4928 14.4103C27.4928 16.9105 26.8753 19.2255 25.6403 21.3554C24.4041 23.4852 22.7335 25.1828 20.6284 26.4484H6.89956Z" fill="#A8A8A8"/>
</svg>
