<svg width="30" height="30" viewBox="0 0 30 30" fill="none" xmlns="http://www.w3.org/2000/svg">
<path d="M30 4.73684V7.89474H25.2632V12.6316H22.1053V7.89474H17.3684V4.73684H22.1053V0H25.2632V4.73684H30ZM16.5789 15.7895C17.2073 15.7893 17.8098 15.5395 18.254 15.095C18.6982 14.6505 18.9476 14.0478 18.9474 13.4195C18.9472 12.7911 18.6973 12.1886 18.2529 11.7444C17.8084 11.3003 17.2057 11.0508 16.5774 11.0511C16.2662 11.0512 15.9582 11.1125 15.6708 11.2317C15.3834 11.3509 15.1222 11.5255 14.9023 11.7455C14.6824 11.9656 14.508 12.2268 14.389 12.5143C14.27 12.8018 14.2088 13.1099 14.2089 13.4211C14.2091 13.7322 14.2704 14.0402 14.3896 14.3277C14.5088 14.6151 14.6834 14.8762 14.9034 15.0961C15.1235 15.316 15.3847 15.4905 15.6722 15.6094C15.9597 15.7284 16.2678 15.7896 16.5789 15.7895ZM22.1053 20.8958L21.2953 19.9958C20.9991 19.666 20.6369 19.4023 20.2321 19.2218C19.8273 19.0412 19.389 18.9479 18.9458 18.9479C18.5026 18.9479 18.0643 19.0412 17.6595 19.2218C17.2547 19.4023 16.8925 19.666 16.5963 19.9958L15.5605 21.15L7.89474 12.6316L3.15789 17.8942V7.89474H14.2105V4.73684H3.15789C2.32037 4.73684 1.51715 5.06955 0.924926 5.66177C0.332706 6.25399 0 7.05721 0 7.89474V26.8421C0 27.6796 0.332706 28.4829 0.924926 29.0751C1.51715 29.6673 2.32037 30 3.15789 30H22.1053C22.9428 30 23.746 29.6673 24.3382 29.0751C24.9305 28.4829 25.2632 27.6796 25.2632 26.8421V15.7895H22.1053V20.8958Z" fill="#A8A8A8"/>
</svg>
