<svg width="30" height="30" viewBox="0 0 30 30" fill="none" xmlns="http://www.w3.org/2000/svg">
<path d="M21 27V30H3C1.35 30 0 28.65 0 27V7.5H3V27H21ZM27 0H9C7.35 0 6 1.35 6 3V21C6 22.65 7.35 24 9 24H27C28.65 24 30 22.65 30 21V3C30 1.35 28.65 0 27 0ZM19.5 18H16.5V15H19.5V18ZM22.2 10.2C21.75 10.8 21.15 11.25 20.55 11.55C20.25 11.85 19.95 12 19.8 12.3C19.5 12.6 19.5 13.05 19.5 13.5H16.5C16.5 12.75 16.65 12.15 16.95 11.7C17.25 11.25 17.7 10.8 18.45 10.35C18.9 10.05 19.2 9.75 19.35 9.45C19.65 9.15 19.65 8.7 19.65 8.25C19.65 7.8 19.5 7.35 19.2 7.05C18.9 6.75 18.6 6.6 18 6.6C17.55 6.6 17.25 6.75 16.95 6.9C16.65 7.2 16.5 7.5 16.5 7.95H13.65C13.65 6.75 13.95 5.85 14.85 5.25C15.9 4.8 16.95 4.5 18.3 4.5C19.65 4.5 20.85 4.8 21.6 5.55C22.35 6.3 22.8 7.2 22.8 8.25C22.8 9 22.5 9.6 22.2 10.2Z" fill="#A8A8A8"/>
</svg>
