<svg width="36" height="36" viewBox="0 0 36 36" fill="none" xmlns="http://www.w3.org/2000/svg">
<path d="M22.4336 34.6622C21.7628 35.333 20.9315 35.6684 19.9398 35.6684C18.9482 35.6684 18.1169 35.333 17.4461 34.6622L2.04609 19.2622C1.72526 18.9413 1.47005 18.5622 1.28047 18.1247C1.09089 17.6872 0.996094 17.2205 0.996094 16.7247V4.21216C0.996094 3.24966 1.3388 2.4257 2.02422 1.74028C2.70964 1.05487 3.53359 0.712158 4.49609 0.712158H17.0086C17.5044 0.712158 17.9711 0.80695 18.4086 0.996533C18.8461 1.18612 19.2253 1.44132 19.5461 1.76216L34.9461 17.2059C35.6169 17.8767 35.9523 18.7007 35.9523 19.6778C35.9523 20.6549 35.6169 21.4788 34.9461 22.1497L22.4336 34.6622ZM19.9398 32.2122L32.4523 19.6997L17.0086 4.21216H4.49609V16.7247L19.9398 32.2122ZM8.87109 11.2122C9.60026 11.2122 10.2201 10.957 10.7305 10.4465C11.2409 9.93612 11.4961 9.31633 11.4961 8.58716C11.4961 7.85799 11.2409 7.2382 10.7305 6.72778C10.2201 6.21737 9.60026 5.96216 8.87109 5.96216C8.14193 5.96216 7.52214 6.21737 7.01172 6.72778C6.5013 7.2382 6.24609 7.85799 6.24609 8.58716C6.24609 9.31633 6.5013 9.93612 7.01172 10.4465C7.52214 10.957 8.14193 11.2122 8.87109 11.2122Z" fill="#A8A8A8"/>
<path d="M17.9961 3.21216L3.49609 3.71216V18.7122L19.9961 34.2122L34.4961 19.2122L17.9961 3.21216Z" fill="#A8A8A8"/>
</svg>
