<svg width="35" height="33" viewBox="0 0 35 33" fill="none" xmlns="http://www.w3.org/2000/svg">
<path d="M10.7576 33H4.03456C3.06148 33 2.22817 32.6689 1.53463 32.0066C0.842273 31.3432 0.496094 30.5462 0.496094 29.6154V23.1846C1.91148 23.1846 3.14994 22.7548 4.21148 21.8951C5.27302 21.0343 5.80379 19.941 5.80379 18.6154C5.80379 17.2897 5.27302 16.1965 4.21148 15.3357C3.14994 14.476 1.91148 14.0462 0.496094 14.0462V7.61538C0.496094 6.68462 0.842273 5.8881 1.53463 5.22585C2.22817 4.56246 3.06148 4.23077 4.03456 4.23077H11.1115C11.1115 3.04615 11.539 2.04487 12.3942 1.22692C13.2493 0.408974 14.2961 0 15.5346 0C16.773 0 17.8198 0.408974 18.6749 1.22692C19.5301 2.04487 19.9576 3.04615 19.9576 4.23077H27.0346C28.0076 4.23077 28.8409 4.56246 29.5345 5.22585C30.2268 5.8881 30.573 6.68462 30.573 7.61538V14.3846C31.8115 14.3846 32.8583 14.7936 33.7134 15.6115C34.5685 16.4295 34.9961 17.4308 34.9961 18.6154C34.9961 19.8 34.5685 20.8013 33.7134 21.6192C32.8583 22.4372 31.8115 22.8462 30.573 22.8462V29.6154C30.573 30.5462 30.2268 31.3432 29.5345 32.0066C28.8409 32.6689 28.0076 33 27.0346 33H20.3115C20.3115 31.5897 19.8474 30.391 18.9191 29.4038C17.9897 28.4167 16.8615 27.9231 15.5346 27.9231C14.2076 27.9231 13.08 28.4167 12.1518 29.4038C11.2224 30.391 10.7576 31.5897 10.7576 33Z" fill="#A8A8A8"/>
</svg>
