<svg width="45" height="36" viewBox="0 0 45 36" fill="none" xmlns="http://www.w3.org/2000/svg">
<path d="M4.28571 33.8824C3.10714 33.8824 2.09857 33.468 1.26 32.6393C0.42 31.8092 0 30.8118 0 29.6471V4.23529C0 3.07059 0.42 2.07388 1.26 1.24518C2.09857 0.415058 3.10714 0 4.28571 0H38.5714C39.75 0 40.7593 0.415058 41.5993 1.24518C42.4379 2.07388 42.8571 3.07059 42.8571 4.23529V16.9941H38.5714V4.23529H4.28571V29.6471H25.7679V33.8824H4.28571ZM37.5 36L35.1429 30.9177L30 28.5882L35.1429 26.2588L37.5 21.1765L39.8571 26.2588L45 28.5882L39.8571 30.9177L37.5 36ZM21.4286 25.4118L24.1071 19.5882L30 16.9412L24.1071 14.2941L21.4286 8.47059L18.75 14.2941L12.8571 16.9412L18.75 19.5882L21.4286 25.4118Z" fill="#01579B"/>
</svg>
