<svg width="23" height="30" viewBox="0 0 23 30" fill="none" xmlns="http://www.w3.org/2000/svg">
<path d="M11.1194 30C10.304 30 9.60618 29.7065 9.02599 29.1195C8.44482 28.5315 8.15423 27.825 8.15423 27H14.0846C14.0846 27.825 13.7945 28.5315 13.2143 29.1195C12.6331 29.7065 11.9348 30 11.1194 30ZM5.18905 25.5V22.5H17.0497V25.5H5.18905ZM5.5597 21C3.85473 19.975 2.50211 18.6 1.50186 16.875C0.50062 15.15 0 13.275 0 11.25C0 8.125 1.0813 5.469 3.2439 3.282C5.40551 1.094 8.03068 0 11.1194 0C14.2081 0 16.8333 1.094 18.9949 3.282C21.1575 5.469 22.2388 8.125 22.2388 11.25C22.2388 13.275 21.7387 15.15 20.7384 16.875C19.7372 18.6 18.3841 19.975 16.6791 21H5.5597Z" fill="#A8A8A8"/>
</svg>
