<svg width="38" height="30" viewBox="0 0 38 30" fill="none" xmlns="http://www.w3.org/2000/svg">
<path d="M14.0625 13.125L12.2812 16.9688L8.4375 18.75L12.2812 20.5312L14.0625 24.375L15.8438 20.5312L19.6875 18.75L15.8438 16.9688L14.0625 13.125ZM25.3125 13.125L24.0938 15.6563L21.5625 16.875L24.0938 18.0938L25.3125 20.625L26.5312 18.0938L29.0625 16.875L26.5312 15.6563L25.3125 13.125ZM3.75 0L7.5 7.5H13.125L9.375 0H13.125L16.875 7.5H22.5L18.75 0H22.5L26.25 7.5H31.875L28.125 0H33.75C34.7812 0 35.6644 0.3675 36.3994 1.1025C37.1331 1.83625 37.5 2.71875 37.5 3.75V26.25C37.5 27.2812 37.1331 28.1644 36.3994 28.8994C35.6644 29.6331 34.7812 30 33.75 30H3.75C2.71875 30 1.83625 29.6331 1.1025 28.8994C0.3675 28.1644 0 27.2812 0 26.25V3.75C0 2.71875 0.3675 1.83625 1.1025 1.1025C1.83625 0.3675 2.71875 0 3.75 0Z" fill="#A8A8A8"/>
</svg>
